<?xml version="1.0" encoding="utf-8"?>
<!-- Generator: Adobe Illustrator 16.0.0, SVG Export Plug-In . SVG Version: 6.00 Build 0)  -->
<!DOCTYPE svg PUBLIC "-//W3C//DTD SVG 1.1//EN" "http://www.w3.org/Graphics/SVG/1.1/DTD/svg11.dtd">
<svg version="1.1" id="Capa_1" xmlns="http://www.w3.org/2000/svg" xmlns:xlink="http://www.w3.org/1999/xlink" x="0px" y="0px"
	 width="130px" height="130px" viewBox="0 0 130 130" enable-background="new 0 0 130 130" xml:space="preserve">
<path fill="#E6E1CF" d="M65.5,11.397c29.851,0,54.058,24.302,54.058,54.104c0,29.849-24.207,54.055-54.058,54.055
	c-29.85,0-54.104-24.206-54.104-54.055C11.396,35.699,35.65,11.397,65.5,11.397 M65.5,1C29.855,1,0.998,29.904,0.998,65.502
	C0.998,101.146,29.855,130,65.5,130c35.644,0,64.5-28.854,64.5-64.498C130,29.904,101.144,1,65.5,1L65.5,1z"/>
<polygon fill="#E6E1CF" points="48.11,87.047 94.73,64.934 48.11,42.822 "/>
</svg>
